<svg width="150" height="150" viewBox="0 0 150 150" fill="none" xmlns="http://www.w3.org/2000/svg">
<rect width="150" height="150" fill="#F5F5F5"/>
<circle cx="75" cy="75" r="75" fill="black"/>
<path d="M43.016 89H42.44L56.792 55.4L57.32 55.16L69.416 89H65.336L61.592 78.44H47.576L43.016 89ZM55.304 60.584L47.768 77.96H61.448L55.304 60.584ZM104.803 55.4C105.411 56.008 105.715 56.792 105.715 57.752C105.715 58.552 105.539 59.368 105.187 60.2L93.8589 89L93.3309 89.24L86.9949 69.128L79.1709 89L78.6429 89.24L67.9869 55.4H72.0669L80.6589 83.816L86.7549 68.36L82.6749 55.4H86.7549L95.3469 83.816L104.611 60.2C104.963 59.4 105.139 58.568 105.139 57.704C105.139 56.84 104.899 56.168 104.419 55.688L104.803 55.4Z" fill="white"/>
<path d="M46.021 95.5737C46.0845 95.5272 46.1522 95.4976 46.2241 95.4849L49.6963 104.156C49.7386 104.262 49.8084 104.353 49.9058 104.429C50.0031 104.501 50.1237 104.558 50.2676 104.6C50.4157 104.638 50.5426 104.668 50.6484 104.689C50.7585 104.706 50.8918 104.723 51.0483 104.74C51.0653 104.807 51.0737 104.865 51.0737 104.911C51.0737 104.962 51.0653 105.008 51.0483 105.051C50.1343 105.017 49.4508 105 48.998 105C48.5072 105 47.7962 105.017 46.8652 105.051C46.8483 105 46.8398 104.949 46.8398 104.898C46.8398 104.843 46.8483 104.791 46.8652 104.74C47.7201 104.647 48.1475 104.486 48.1475 104.257C48.1475 104.185 48.139 104.111 48.1221 104.035L47.2017 101.674C46.9224 101.665 46.5457 101.661 46.0718 101.661C45.8475 101.661 45.2656 101.67 44.3262 101.687L43.355 104.156V104.232C43.355 104.274 43.3613 104.314 43.374 104.353C43.391 104.391 43.4163 104.424 43.4502 104.454C43.4883 104.484 43.5243 104.509 43.5581 104.53C43.592 104.551 43.6385 104.573 43.6978 104.594C43.7612 104.611 43.8141 104.625 43.8564 104.638C43.903 104.647 43.9644 104.657 44.0405 104.67C44.1209 104.683 44.1823 104.693 44.2246 104.702C44.2669 104.706 44.3283 104.712 44.4087 104.721C44.4933 104.729 44.5526 104.736 44.5864 104.74C44.6034 104.807 44.6118 104.865 44.6118 104.911C44.6118 104.937 44.6034 104.983 44.5864 105.051C43.6385 105.017 43.1053 105 42.9868 105C42.7583 105 42.1701 105.017 41.2222 105.051C41.2052 105 41.1968 104.949 41.1968 104.898C41.1968 104.843 41.2052 104.791 41.2222 104.74C42.1024 104.638 42.6038 104.422 42.7266 104.092L45.4561 97.2114L45.3164 96.8369C45.5576 96.6761 45.7248 96.5026 45.8179 96.3164C45.9152 96.1302 45.9829 95.8826 46.021 95.5737ZM46.0718 101.166C46.4611 101.166 46.7679 101.162 46.9922 101.153L45.7861 98.0303H45.7607L44.5483 101.141C44.9461 101.158 45.4539 101.166 46.0718 101.166ZM55.1807 104.74C55.2061 104.791 55.2188 104.843 55.2188 104.898C55.2188 104.941 55.2061 104.987 55.1807 105.038C54.6221 105.013 54.0804 105 53.5557 105C53.0394 105 52.502 105.013 51.9434 105.038C51.9264 104.97 51.918 104.924 51.918 104.898C51.918 104.877 51.9264 104.824 51.9434 104.74C52.083 104.723 52.1973 104.706 52.2861 104.689C52.375 104.668 52.485 104.636 52.6162 104.594C52.7474 104.551 52.8468 104.492 52.9146 104.416C52.9823 104.336 53.0182 104.24 53.0225 104.13C53.0394 103.711 53.0479 103.204 53.0479 102.607C53.0479 102.408 53.0457 102.069 53.0415 101.591C53.0373 101.113 53.0352 100.694 53.0352 100.334C52.7939 100.186 52.3877 100.1 51.8164 100.074C51.7995 100.007 51.791 99.9536 51.791 99.9155C51.791 99.8901 51.7995 99.8436 51.8164 99.7759C52.6374 99.6912 53.3525 99.5177 53.9619 99.2554C54.0677 99.2977 54.1418 99.3527 54.1841 99.4204V100.423C54.5946 100.064 54.9881 99.7759 55.3647 99.5601C55.7414 99.34 56.1222 99.23 56.5073 99.23C56.9897 99.23 57.3304 99.3654 57.5293 99.6362C57.7324 99.9071 57.8382 100.33 57.8467 100.906L57.9102 104.13C57.9144 104.24 57.9461 104.336 58.0054 104.416C58.0688 104.492 58.1577 104.551 58.272 104.594C58.3905 104.636 58.4878 104.668 58.564 104.689C58.6401 104.706 58.7396 104.723 58.8623 104.74C58.8792 104.824 58.8877 104.882 58.8877 104.911C58.8877 104.945 58.8792 104.987 58.8623 105.038C58.3164 105.013 57.8128 105 57.3516 105C56.903 105 56.4058 105.013 55.8599 105.038C55.8429 104.97 55.8345 104.92 55.8345 104.886C55.8345 104.856 55.8429 104.807 55.8599 104.74C55.9699 104.723 56.0609 104.706 56.1328 104.689C56.209 104.668 56.2936 104.636 56.3867 104.594C56.484 104.551 56.556 104.492 56.6025 104.416C56.6533 104.336 56.6787 104.24 56.6787 104.13L56.6914 101.115C56.6914 100.349 56.4608 99.9663 55.9995 99.9663C55.5679 99.9663 54.9627 100.254 54.1841 100.83C54.1841 102.061 54.201 103.161 54.2349 104.13C54.2391 104.24 54.2708 104.336 54.3301 104.416C54.3936 104.492 54.4824 104.551 54.5967 104.594C54.7109 104.636 54.8062 104.668 54.8823 104.689C54.9585 104.706 55.0579 104.723 55.1807 104.74ZM59.7002 99.7759C60.5212 99.6912 61.2363 99.5177 61.8457 99.2554C61.9515 99.2977 62.0256 99.3527 62.0679 99.4204C62.0679 101.617 62.0848 103.187 62.1187 104.13C62.1229 104.24 62.1546 104.336 62.2139 104.416C62.2773 104.492 62.3662 104.551 62.4805 104.594C62.5947 104.636 62.6899 104.668 62.7661 104.689C62.8423 104.706 62.9417 104.723 63.0645 104.74C63.0898 104.791 63.1025 104.843 63.1025 104.898C63.1025 104.953 63.0898 105 63.0645 105.038C62.5059 105.013 61.9642 105 61.4395 105C60.9232 105 60.3857 105.013 59.8271 105.038C59.8102 104.97 59.8018 104.924 59.8018 104.898C59.8018 104.877 59.8102 104.824 59.8271 104.74C59.9668 104.723 60.0811 104.706 60.1699 104.689C60.2588 104.668 60.3688 104.636 60.5 104.594C60.6312 104.551 60.7306 104.492 60.7983 104.416C60.866 104.336 60.902 104.24 60.9062 104.13C60.9232 103.711 60.9316 103.204 60.9316 102.607C60.9316 102.408 60.9295 102.069 60.9253 101.591C60.9211 101.113 60.9189 100.694 60.9189 100.334C60.6777 100.186 60.2715 100.1 59.7002 100.074C59.6833 100.007 59.6748 99.9536 59.6748 99.9155C59.6748 99.8901 59.6833 99.8436 59.7002 99.7759ZM60.6968 97.1226C60.6968 96.9067 60.7729 96.7227 60.9253 96.5703C61.0819 96.418 61.266 96.3418 61.4775 96.3418C61.6934 96.3418 61.8774 96.418 62.0298 96.5703C62.1821 96.7227 62.2583 96.9067 62.2583 97.1226C62.2583 97.3341 62.1821 97.5182 62.0298 97.6748C61.8774 97.8271 61.6934 97.9033 61.4775 97.9033C61.266 97.9033 61.0819 97.8271 60.9253 97.6748C60.7729 97.5182 60.6968 97.3341 60.6968 97.1226ZM66.8984 95.6689C67.804 95.7028 68.515 95.7197 69.0312 95.7197C69.5264 95.7197 70.0723 95.7028 70.6689 95.6689C70.6859 95.7367 70.6943 95.7832 70.6943 95.8086C70.6943 95.8551 70.6859 95.908 70.6689 95.9673C70.3008 95.9842 70.0469 96.0308 69.9072 96.1069C69.7718 96.1789 69.7041 96.2741 69.7041 96.3926C69.7041 96.4264 69.7083 96.4666 69.7168 96.5132C69.7295 96.5555 70.5885 98.6777 72.2939 102.88H72.3574L73.5952 99.5791L72.478 96.748C72.3003 96.291 71.875 96.0308 71.2021 95.9673C71.1852 95.8911 71.1768 95.8382 71.1768 95.8086C71.1768 95.7663 71.1852 95.7197 71.2021 95.6689C71.7988 95.7028 72.4611 95.7197 73.189 95.7197C73.8576 95.7197 74.4902 95.7028 75.0869 95.6689C75.1038 95.7367 75.1123 95.7832 75.1123 95.8086C75.1123 95.8551 75.1038 95.908 75.0869 95.9673C74.5749 95.9842 74.2427 96.0244 74.0903 96.0879C73.9422 96.1471 73.8682 96.2614 73.8682 96.4307C73.8682 96.4349 73.8978 96.5407 73.957 96.748L76.2993 102.88H76.3628L78.6797 96.6655C78.7051 96.6021 78.7178 96.5195 78.7178 96.418C78.7178 96.2826 78.6353 96.1852 78.4702 96.126C78.3052 96.0625 78.0365 96.0096 77.6641 95.9673C77.6471 95.8742 77.6387 95.8171 77.6387 95.7959C77.6387 95.762 77.6471 95.7197 77.6641 95.6689C78.1846 95.6943 78.6818 95.707 79.1558 95.707C79.617 95.707 80.0719 95.6943 80.5205 95.6689C80.5374 95.7197 80.5459 95.762 80.5459 95.7959C80.5459 95.8636 80.5374 95.9207 80.5205 95.9673C80.2201 95.9969 79.9704 96.0604 79.7715 96.1577C79.5768 96.255 79.4245 96.4243 79.3145 96.6655L76.0898 105.184H75.8042L73.8936 100.347L72.0845 105.184H71.7988L68.314 96.748C68.1278 96.2995 67.6559 96.0392 66.8984 95.9673C66.8815 95.8911 66.873 95.8382 66.873 95.8086C66.873 95.7663 66.8815 95.7197 66.8984 95.6689ZM85.9414 101.636H82.4819C82.465 101.89 82.4565 102.114 82.4565 102.309C82.4692 102.939 82.6533 103.445 83.0088 103.826C83.3643 104.202 83.8403 104.391 84.437 104.391C84.5978 104.391 84.748 104.374 84.8877 104.34C85.0273 104.302 85.1416 104.259 85.2305 104.213C85.3236 104.166 85.4188 104.099 85.5161 104.01C85.6134 103.921 85.6833 103.851 85.7256 103.8C85.7721 103.745 85.8335 103.665 85.9097 103.559C85.9858 103.449 86.0366 103.379 86.062 103.35C86.1636 103.371 86.2461 103.417 86.3096 103.489C86.098 104.056 85.77 104.482 85.3257 104.765C84.8813 105.044 84.3989 105.184 83.8784 105.184C83.6203 105.184 83.3685 105.15 83.123 105.083C82.8818 105.019 82.647 104.913 82.4185 104.765C82.1899 104.617 81.991 104.435 81.8218 104.219C81.6525 103.999 81.5171 103.726 81.4155 103.4C81.314 103.07 81.2632 102.706 81.2632 102.309C81.2632 101.416 81.5361 100.679 82.082 100.1C82.6279 99.5199 83.2987 99.23 84.0942 99.23C84.4455 99.23 84.7502 99.2808 85.0083 99.3823C85.2707 99.4797 85.4738 99.613 85.6177 99.7822C85.7658 99.9515 85.8737 100.138 85.9414 100.341C86.0133 100.54 86.0493 100.753 86.0493 100.982C86.0493 101.194 86.0133 101.411 85.9414 101.636ZM83.9419 99.6426C83.6499 99.6426 83.3727 99.7716 83.1104 100.03C82.8522 100.288 82.666 100.679 82.5518 101.204H84.8369C84.8792 101.043 84.9004 100.904 84.9004 100.785C84.9004 100.455 84.8242 100.182 84.6719 99.9663C84.5195 99.7505 84.2762 99.6426 83.9419 99.6426ZM86.8555 95.8721C87.6637 95.7959 88.3789 95.6224 89.001 95.3516C89.1195 95.4023 89.1935 95.4595 89.2231 95.5229V100.188C89.8791 99.5495 90.5413 99.23 91.21 99.23C91.8617 99.23 92.3927 99.4733 92.8032 99.96C93.2137 100.442 93.4189 101.096 93.4189 101.921C93.4189 102.23 93.3851 102.535 93.3174 102.835C93.2497 103.132 93.1375 103.424 92.981 103.711C92.8244 103.995 92.6318 104.245 92.4033 104.46C92.1748 104.676 91.8849 104.852 91.5337 104.987C91.1825 105.118 90.7931 105.184 90.3657 105.184C89.9468 105.184 89.5384 105.114 89.1406 104.975C88.7428 104.835 88.3895 104.636 88.0806 104.378C88.089 103.959 88.0933 102.939 88.0933 101.318C88.0933 100.646 88.0911 99.7293 88.0869 98.5698C88.0827 97.4103 88.0806 96.6973 88.0806 96.4307C87.8436 96.291 87.4352 96.2043 86.8555 96.1704C86.8385 96.1027 86.8301 96.0519 86.8301 96.0181C86.8301 95.9884 86.8385 95.9398 86.8555 95.8721ZM90.6006 100.062C90.3171 100.062 90.0695 100.114 89.8579 100.22C89.6506 100.322 89.439 100.476 89.2231 100.684C89.2231 102.055 89.2316 103.163 89.2485 104.01C89.5405 104.513 89.987 104.765 90.5879 104.765C90.7148 104.765 90.8418 104.744 90.9688 104.702C91.0999 104.659 91.2375 104.579 91.3813 104.46C91.5252 104.342 91.6501 104.192 91.7559 104.01C91.8659 103.828 91.9569 103.582 92.0288 103.273C92.1007 102.965 92.1367 102.613 92.1367 102.22C92.1367 101.813 92.0838 101.452 91.978 101.134C91.8722 100.817 91.7008 100.559 91.4639 100.36C91.2269 100.161 90.9391 100.062 90.6006 100.062ZM99.665 101.636H96.2056C96.1886 101.89 96.1802 102.114 96.1802 102.309C96.1929 102.939 96.377 103.445 96.7324 103.826C97.0879 104.202 97.564 104.391 98.1606 104.391C98.3215 104.391 98.4717 104.374 98.6113 104.34C98.751 104.302 98.8652 104.259 98.9541 104.213C99.0472 104.166 99.1424 104.099 99.2397 104.01C99.3371 103.921 99.4069 103.851 99.4492 103.8C99.4958 103.745 99.5571 103.665 99.6333 103.559C99.7095 103.449 99.7603 103.379 99.7856 103.35C99.8872 103.371 99.9697 103.417 100.033 103.489C99.8216 104.056 99.4937 104.482 99.0493 104.765C98.605 105.044 98.1226 105.184 97.6021 105.184C97.3439 105.184 97.0921 105.15 96.8467 105.083C96.6055 105.019 96.3706 104.913 96.1421 104.765C95.9136 104.617 95.7147 104.435 95.5454 104.219C95.3761 103.999 95.2407 103.726 95.1392 103.4C95.0376 103.07 94.9868 102.706 94.9868 102.309C94.9868 101.416 95.2598 100.679 95.8057 100.1C96.3516 99.5199 97.0223 99.23 97.8179 99.23C98.1691 99.23 98.4738 99.2808 98.7319 99.3823C98.9943 99.4797 99.1974 99.613 99.3413 99.7822C99.4894 99.9515 99.5973 100.138 99.665 100.341C99.737 100.54 99.7729 100.753 99.7729 100.982C99.7729 101.194 99.737 101.411 99.665 101.636ZM97.6655 99.6426C97.3735 99.6426 97.0964 99.7716 96.834 100.03C96.5758 100.288 96.3896 100.679 96.2754 101.204H98.5605C98.6029 101.043 98.624 100.904 98.624 100.785C98.624 100.455 98.5479 100.182 98.3955 99.9663C98.2432 99.7505 97.9998 99.6426 97.6655 99.6426ZM100.122 99.3696C100.681 99.395 101.246 99.4077 101.817 99.4077C102.337 99.4077 102.871 99.395 103.417 99.3696C103.433 99.4373 103.442 99.4902 103.442 99.5283C103.442 99.5537 103.433 99.6003 103.417 99.668C103.29 99.6764 103.188 99.687 103.112 99.6997C103.036 99.7082 102.936 99.7251 102.813 99.7505C102.695 99.7759 102.604 99.814 102.541 99.8647C102.481 99.9155 102.452 99.9769 102.452 100.049C102.452 100.087 102.469 100.165 102.502 100.284L103.791 103.489H103.829L105.054 100.284C105.097 100.178 105.118 100.087 105.118 100.011C105.118 99.8161 104.874 99.7018 104.388 99.668C104.371 99.6003 104.362 99.5537 104.362 99.5283C104.362 99.4902 104.371 99.4373 104.388 99.3696C104.883 99.395 105.192 99.4077 105.314 99.4077C105.67 99.4077 106.121 99.395 106.667 99.3696C106.683 99.4204 106.692 99.4648 106.692 99.5029C106.692 99.5283 106.683 99.5833 106.667 99.668C106.138 99.6891 105.795 99.8944 105.638 100.284L103.677 104.975H103.689L102.985 106.822C102.722 107.507 102.477 107.971 102.249 108.212C102.024 108.453 101.736 108.574 101.385 108.574C101.102 108.574 100.865 108.489 100.674 108.32C100.488 108.151 100.395 107.928 100.395 107.653C100.395 107.404 100.465 107.207 100.604 107.063C100.744 106.919 100.918 106.847 101.125 106.847C101.315 106.847 101.461 106.904 101.563 107.019C101.669 107.133 101.722 107.262 101.722 107.406C101.722 107.609 101.631 107.77 101.449 107.888C101.47 107.981 101.54 108.028 101.658 108.028C101.794 108.028 101.921 107.95 102.039 107.793C102.158 107.641 102.312 107.313 102.502 106.809L103.207 105L101.227 100.284C101.18 100.178 101.114 100.087 101.03 100.011C100.945 99.9303 100.841 99.869 100.719 99.8267C100.6 99.7801 100.501 99.7484 100.42 99.7314C100.34 99.7103 100.241 99.6891 100.122 99.668C100.105 99.6341 100.097 99.5876 100.097 99.5283C100.097 99.4648 100.105 99.4119 100.122 99.3696Z" fill="#FBF7F7"/>
</svg>
